<?xml version="1.0" ?><!DOCTYPE svg  PUBLIC '-//W3C//DTD SVG 1.1//EN'  'http://www.w3.org/Graphics/SVG/1.1/DTD/svg11.dtd'><svg xmlns="http://www.w3.org/2000/svg" xmlns:xlink="http://www.w3.org/1999/xlink" xml:space="preserve" width="2.83333in" height="2.83333in" version="1.1" style="shape-rendering:geometricPrecision; text-rendering:geometricPrecision; image-rendering:optimizeQuality; fill-rule:evenodd; clip-rule:evenodd" viewBox="0 0 2833 2833"><defs><style type="text/css">
   <![CDATA[
    .fil0 {fill:#061420}
    .fil1 {fill:#FFD80D}
    .fil2 {fill:white}
   ]]>
  </style></defs><g id="Layer_x0020_1"><circle class="fil0" cx="1417" cy="1417" r="1417"/><g id="_426730008"><path class="fil1" d="M1915 2270l-996 0c-27,0 -49,-22 -49,-49l0 -1527c0,-27 22,-49 49,-49l114 0 0 62c-20,17 -32,43 -32,71 0,51 41,92 92,92 51,0 93,-41 93,-92 0,-28 -12,-54 -33,-71l0 -62 96 0 0 62c-20,17 -33,43 -33,71 0,51 42,92 93,92 51,0 92,-41 92,-92 0,-28 -12,-54 -32,-71l0 -62 95 0 0 62c-20,17 -32,43 -32,71 0,51 41,92 92,92 52,0 93,-41 93,-92 0,-28 -12,-54 -33,-71l0 -62 96 0 0 62c-20,17 -33,43 -33,71 0,51 42,92 93,92 51,0 93,-41 93,-92 0,-28 -13,-54 -33,-71l0 -62 115 0c26,0 48,22 48,49l0 1527c0,27 -22,49 -48,49zm-446 -223l-388 0c-27,0 -27,-40 0,-40l388 0c26,0 26,40 0,40zm284 -248l-672 0c-27,0 -27,-40 0,-40l672 0c26,0 26,40 0,40zm0 -249l-672 0c-27,0 -27,-40 0,-40l672 0c26,0 26,40 0,40zm0 -249l-672 0c-27,0 -27,-40 0,-40l672 0c26,0 26,40 0,40zm0 -248l-672 0c-27,0 -27,-40 0,-40l672 0c26,0 26,40 0,40z"/><path class="fil2" d="M1073 729l0 -146c0,-26 40,-26 40,0l0 146c19,8 33,27 33,49 0,29 -24,52 -53,52 -29,0 -52,-23 -52,-52 0,-22 13,-41 32,-49zm667 101c-29,0 -53,-23 -53,-52 0,-22 14,-41 33,-49l0 -146c0,-26 40,-26 40,0l0 146c19,8 33,27 33,49 0,29 -24,52 -53,52zm-216 0c-29,0 -52,-23 -52,-52 0,-22 13,-41 32,-49l0 -146c0,-26 40,-26 40,0l0 146c20,8 33,27 33,49 0,29 -24,52 -53,52zm-215 0c-29,0 -53,-23 -53,-52 0,-22 14,-41 33,-49l0 -146c0,-26 40,-26 40,0l0 146c19,8 32,27 32,49 0,29 -23,52 -52,52z"/></g></g></svg>